<svg width="35" height="31" viewBox="0 0 35 31" fill="none" xmlns="http://www.w3.org/2000/svg">
<path d="M22.8261 15.1364H25.1087V19.3953L28.8217 21.5248L27.6804 23.4882L22.8261 20.7093V15.1364ZM24.3478 12.1158C22.3299 12.1158 20.3946 12.9114 18.9677 14.3276C17.5408 15.7437 16.7391 17.6644 16.7391 19.6672C16.7391 21.6699 17.5408 23.5907 18.9677 25.0068C20.3946 26.423 22.3299 27.2186 24.3478 27.2186C26.3658 27.2186 28.3011 26.423 29.728 25.0068C31.1549 23.5907 31.9565 21.6699 31.9565 19.6672C31.9565 17.6644 31.1549 15.7437 29.728 14.3276C28.3011 12.9114 26.3658 12.1158 24.3478 12.1158ZM24.3478 9.09527C27.173 9.09527 29.8824 10.2091 31.88 12.1917C33.8777 14.1743 35 16.8633 35 19.6672C35 22.471 33.8777 25.16 31.88 27.1427C29.8824 29.1253 27.173 30.2391 24.3478 30.2391C20.1022 30.2391 16.4348 27.7623 14.7152 24.198H0V19.6672C0 15.6499 8.11087 13.6261 12.1739 13.6261C13.087 13.6261 14.213 13.7318 15.4 13.9282C16.3652 12.4442 17.69 11.2242 19.2533 10.3799C20.8165 9.53554 22.5681 9.09387 24.3478 9.09527ZM13.6957 19.6672C13.6957 18.61 13.8478 17.583 14.137 16.6466C13.4978 16.5409 12.8283 16.4956 12.1739 16.4956C7.65435 16.4956 2.8913 18.7006 2.8913 19.6672V21.3285H13.8326C13.7411 20.7794 13.6953 20.2238 13.6957 19.6672ZM12.1739 0.0336304C13.7883 0.0336304 15.3365 0.670101 16.478 1.80303C17.6196 2.93595 18.2609 4.47253 18.2609 6.07473C18.2609 7.67692 17.6196 9.2135 16.478 10.3464C15.3365 11.4794 13.7883 12.1158 12.1739 12.1158C10.5596 12.1158 9.01131 11.4794 7.86978 10.3464C6.72826 9.2135 6.08696 7.67692 6.08696 6.07473C6.08696 4.47253 6.72826 2.93595 7.86978 1.80303C9.01131 0.670101 10.5596 0.0336304 12.1739 0.0336304ZM12.1739 2.90315C11.3264 2.90315 10.5135 3.2373 9.91425 3.83208C9.31494 4.42687 8.97826 5.23357 8.97826 6.07473C8.97826 6.91588 9.31494 7.72258 9.91425 8.31737C10.5135 8.91215 11.3264 9.2463 12.1739 9.2463C13.0215 9.2463 13.8343 8.91215 14.4336 8.31737C15.0329 7.72258 15.3696 6.91588 15.3696 6.07473C15.3696 5.23357 15.0329 4.42687 14.4336 3.83208C13.8343 3.2373 13.0215 2.90315 12.1739 2.90315Z" fill="black"/>
</svg>
