<svg width="35" height="37" viewBox="0 0 35 37" fill="none" xmlns="http://www.w3.org/2000/svg">
<path d="M22.3785 34.3231L14.7698 26.6151L17.2762 24.076L22.3785 29.2449L32.4936 18.9978L35 21.5369L22.3785 34.3231ZM32.2251 16.3227H28.6445V7.25455H25.0639V12.6955H7.16113V7.25455H3.58057V32.6455H14.3223V36.2727H3.58057C2.59591 36.2727 1.75269 35.9173 1.0509 35.2063C0.349108 34.4954 -0.00119048 33.6417 3.03953e-06 32.6455V7.25455C3.03953e-06 6.25705 0.350898 5.40283 1.05269 4.69188C1.75448 3.98093 2.5971 3.62607 3.58057 3.62728H11.055C11.3832 2.56932 12.0247 1.69998 12.9795 1.01927C13.9344 0.338549 14.9787 -0.00120588 16.1125 3.21567e-06C17.3061 3.21567e-06 18.3731 0.340362 19.3136 1.02108C20.2541 1.7018 20.8878 2.57053 21.2148 3.62728H28.6445C29.6292 3.62728 30.4724 3.98275 31.1742 4.69369C31.876 5.40464 32.2263 6.25826 32.2251 7.25455V16.3227ZM16.1125 7.25455C16.6198 7.25455 17.0453 7.08044 17.389 6.73222C17.7327 6.384 17.904 5.95357 17.9028 5.44091C17.9028 4.92705 17.7309 4.49601 17.3872 4.14779C17.0435 3.79957 16.6186 3.62607 16.1125 3.62728C15.6053 3.62728 15.1798 3.80138 14.8361 4.1496C14.4923 4.49782 14.3211 4.92826 14.3223 5.44091C14.3223 5.95478 14.4941 6.38582 14.8379 6.73403C15.1816 7.08225 15.6065 7.25576 16.1125 7.25455Z" fill="black"/>
</svg>
